<svg width="316" height="316" viewBox="0 0 316 316" fill="none" xmlns="http://www.w3.org/2000/svg">
<path d="M2 2H80V80M2 2V80H80M2 2L80 80" stroke="black" stroke-opacity="0.5" stroke-width="3"/>
<path d="M2 80H80M2 80L41 119M2 80V119M80 80L41 119M80 80V119M80 158L41 119M80 158V119M80 158H41M41 119H80M2 119V158H41M2 119L41 158" stroke="black" stroke-opacity="0.5" stroke-width="3"/>
<path d="M80 158H2V236M80 158V236H2M80 158L2 236" stroke="black" stroke-opacity="0.5" stroke-width="3"/>
<path d="M2 236H80M2 236L41 275M2 236V275M80 236L41 275M80 236V275M80 314L41 275M80 314V275M80 314H41M41 275H80M2 275V314H41M2 275L41 314" stroke="black" stroke-opacity="0.5" stroke-width="3"/>
<path d="M80 314H158V236M80 314V236H158M80 314L158 236" stroke="black" stroke-opacity="0.5" stroke-width="3"/>
<path d="M80 236H158M80 236L119 197M80 236V197M158 236L119 197M158 236V197M158 158L119 197M158 158V197M158 158H119M119 197H158M80 197V158H119M80 197L119 158" stroke="black" stroke-opacity="0.5" stroke-width="3"/>
<path d="M158 158H80V80M158 158V80H80M158 158L80 80" stroke="black" stroke-opacity="0.5" stroke-width="3"/>
<path d="M80 80H158M80 80L119 41M80 80V41M158 80L119 41M158 80V41M158 2L119 41M158 2V41M158 2H119M119 41H158M80 41V2H119M80 41L119 2" stroke="black" stroke-opacity="0.5" stroke-width="3"/>
<path d="M158 2H236V80M158 2V80H236M158 2L236 80" stroke="black" stroke-opacity="0.5" stroke-width="3"/>
<path d="M158 80H236M158 80L197 119M158 80V119M236 80L197 119M236 80V119M236 158L197 119M236 158V119M236 158H197M197 119H236M158 119V158H197M158 119L197 158" stroke="black" stroke-opacity="0.5" stroke-width="3"/>
<path d="M236 158H158V236M236 158V236H158M236 158L158 236" stroke="black" stroke-opacity="0.5" stroke-width="3"/>
<path d="M158 236H236M158 236L197 275M158 236V275M236 236L197 275M236 236V275M236 314L197 275M236 314V275M236 314H197M197 275H236M158 275V314H197M158 275L197 314" stroke="black" stroke-opacity="0.5" stroke-width="3"/>
<path d="M314 314H236V236M314 314V236H236M314 314L236 236" stroke="black" stroke-opacity="0.5" stroke-width="3"/>
<path d="M314 236H236M314 236L275 197M314 236V197M236 236L275 197M236 236V197M236 158L275 197M236 158V197M236 158H275M275 197H236M314 197V158H275M314 197L275 158" stroke="black" stroke-opacity="0.5" stroke-width="3"/>
<path d="M236 158H314V80M236 158V80H314M236 158L314 80" stroke="black" stroke-opacity="0.5" stroke-width="3"/>
<path d="M314 80H236M314 80L275 41M314 80V41M236 80L275 41M236 80V41M236 2L275 41M236 2V41M236 2H275M275 41H236M314 41V2H275M314 41L275 2" stroke="black" stroke-opacity="0.5" stroke-width="3"/>
</svg>
